<svg width="20" height="20" viewBox="0 0 20 20" fill="none" xmlns="http://www.w3.org/2000/svg">
<rect width="20" height="20" fill="#F5F5F5"/>
<g id="About Us Page" clip-path="url(#clip0_0_1)">
<rect width="1440" height="4677" transform="translate(-449 -3609)" fill="#EEEEFF"/>
<g id="Group 47">
<rect id="Rectangle 52" x="-349" y="-465" width="405" height="513" rx="8" fill="white"/>
<circle id="Ellipse 7" cx="10" cy="10" r="16" fill="#423EFE"/>
<g id="radix-icons:twitter-logo">
<path id="Vector" fill-rule="evenodd" clip-rule="evenodd" d="M9.64439 6.26113C9.64439 3.95846 11.5111 2.0918 13.8137 2.0918C15.1657 2.0918 16.2444 2.73046 16.9671 3.65846C17.7314 3.50179 18.4642 3.21832 19.1351 2.8198C18.8753 3.62807 18.3315 4.31488 17.6044 4.75313L17.6071 4.75713C18.2973 4.67373 18.9714 4.48814 19.6071 4.20646L19.6057 4.20913C19.1564 4.88246 18.5924 5.4758 17.9417 5.9598C17.9764 6.1958 17.9951 6.4318 17.9951 6.66646C17.9951 11.5825 14.2497 17.2998 7.36173 17.2998C5.33067 17.3016 3.34207 16.7183 1.63373 15.6198C1.5533 15.5682 1.48491 15.4999 1.4332 15.4195C1.38148 15.3391 1.34765 15.2486 1.33399 15.154C1.32033 15.0594 1.32717 14.963 1.35404 14.8713C1.38091 14.7796 1.42719 14.6947 1.48973 14.6225C1.5492 14.5236 1.63592 14.444 1.7395 14.3931C1.84308 14.3423 1.95913 14.3224 2.07373 14.3358C3.29506 14.4798 4.51373 14.3305 5.58973 13.8611C5.05901 13.6266 4.58388 13.2826 4.19553 12.8515C3.80718 12.4204 3.5144 11.912 3.33639 11.3598C3.30348 11.2571 3.29887 11.1474 3.32303 11.0423C3.3472 10.9372 3.39926 10.8405 3.47373 10.7625C3.03554 10.3779 2.68455 9.90419 2.44426 9.37302C2.20396 8.84184 2.07991 8.26546 2.08039 7.68246V7.63713C2.08036 7.49764 2.12893 7.3625 2.21775 7.25495C2.30657 7.14739 2.43008 7.07414 2.56706 7.0478C2.26477 6.46443 2.10744 5.81683 2.10839 5.1598C2.10839 4.5358 2.11239 3.74913 2.55106 3.0398C2.59793 2.96465 2.66085 2.90081 2.73531 2.85286C2.80977 2.80491 2.89392 2.77404 2.98173 2.76246C3.10904 2.72231 3.24548 2.7213 3.37338 2.75958C3.50127 2.79785 3.61473 2.87364 3.69906 2.97713C5.18536 4.80552 7.31118 6.00046 9.64573 6.3198V6.26113H9.64439ZM7.36173 15.9665C6.34158 15.9672 5.32834 15.7992 4.36306 15.4691C5.52411 15.2776 6.61925 14.8002 7.54973 14.0798C7.64725 14.0033 7.71868 13.8985 7.75422 13.7798C7.78976 13.661 7.78765 13.5342 7.7482 13.4167C7.70874 13.2992 7.63387 13.1968 7.53387 13.1236C7.43387 13.0504 7.31365 13.0099 7.18973 13.0078C6.74335 12.9998 6.30485 12.8887 5.90844 12.6834C5.51203 12.478 5.16842 12.1838 4.90439 11.8238C5.15773 11.8038 5.40573 11.7598 5.64573 11.6958C5.77656 11.6608 5.8917 11.5826 5.97245 11.4739C6.05319 11.3652 6.09478 11.2323 6.09046 11.097C6.08613 10.9616 6.03614 10.8317 5.94862 10.7284C5.8611 10.625 5.74119 10.5543 5.60839 10.5278C5.10114 10.425 4.63052 10.1887 4.24517 9.84318C3.85981 9.49767 3.5737 9.05554 3.41639 8.56246C3.68306 8.62646 3.96173 8.66513 4.24706 8.67446C4.37745 8.67885 4.50572 8.64062 4.61243 8.56556C4.71914 8.4905 4.79848 8.3827 4.83843 8.2585C4.87837 8.1343 4.87674 8.00046 4.83379 7.87727C4.79084 7.75408 4.7089 7.64824 4.60039 7.5758C4.20253 7.31074 3.87629 6.95151 3.65067 6.53003C3.42504 6.10855 3.30701 5.63787 3.30706 5.1598C3.30706 4.9358 3.31106 4.73713 3.32439 4.5558C5.19009 6.45978 7.70467 7.59091 10.3671 7.7238C10.4699 7.72903 10.5725 7.71037 10.6669 7.66931C10.7613 7.62824 10.8449 7.56587 10.9111 7.48708C10.9774 7.40829 11.0245 7.31524 11.0488 7.2152C11.0731 7.11516 11.0738 7.01085 11.0511 6.91046C10.9531 6.49413 10.9506 6.06104 11.0438 5.64361C11.1369 5.22618 11.3232 4.83522 11.5888 4.49999C11.8544 4.16476 12.1924 3.89394 12.5775 3.7078C12.9625 3.52166 13.3847 3.42503 13.8124 3.42513C15.4577 3.42513 16.6604 4.94913 16.6604 6.6678C16.6604 11.0091 13.3604 15.9665 7.36173 15.9665Z" fill="white"/>
</g>
</g>
</g>
<defs>
<clipPath id="clip0_0_1">
<rect width="1440" height="4677" fill="white" transform="translate(-449 -3609)"/>
</clipPath>
</defs>
</svg>
